<?xml version="1.0" encoding="UTF-8"?>
<svg version="1.1" xmlns="http://www.w3.org/2000/svg" width="500" height="500">
<path d="M0 0 C165 0 330 0 500 0 C500 165 500 330 500 500 C335 500 170 500 0 500 C0 335 0 170 0 0 Z " fill="#FEFDFE" transform="translate(0,0)"/>
<path d="M0 0 C0.93435258 79.44680656 0.93435258 79.44680656 -12 108 C-12.74578554 109.97296443 -13.47654166 111.95171981 -14.1875 113.9375 C-14.53167969 114.89527344 -14.87585938 115.85304688 -15.23046875 116.83984375 C-15.48441406 117.55269531 -15.73835937 118.26554687 -16 119 C-16.66 119 -17.32 119 -18 119 C-18.23976563 119.8353125 -18.47953125 120.670625 -18.7265625 121.53125 C-20.19598837 125.53385788 -22.11359181 128.90192467 -24.375 132.5 C-24.80981689 133.19343506 -25.24463379 133.88687012 -25.69262695 134.60131836 C-30.44443771 141.97800284 -36.00305953 148.60838327 -42 155 C-42.52859619 155.56517334 -43.05719238 156.13034668 -43.60180664 156.71264648 C-48.05155785 161.32262206 -52.88957617 165.169782 -58.0625 168.9375 C-59.31160156 169.8510022 -59.31160156 169.8510022 -60.5859375 170.78295898 C-67.47072218 175.74891398 -74.45393363 180.10801873 -82 184 C-82.84691406 184.45503906 -83.69382812 184.91007813 -84.56640625 185.37890625 C-114.36967176 200.25721877 -150.2319241 200.87483046 -182.19726562 194.53369141 C-186.2172668 193.76821035 -190.25798205 193.14441121 -194.30224609 192.52148438 C-198.09983848 191.78739774 -201.44343318 190.50470135 -205 189 C-205 188.34 -205 187.68 -205 187 C-207.97 186.34 -210.94 185.68 -214 185 C-214 184.34 -214 183.68 -214 183 C-212.96166016 182.90295776 -212.96166016 182.90295776 -211.90234375 182.80395508 C-188.04794768 180.51555163 -162.44773212 177.80754088 -140.59765625 167.24609375 C-138.65610561 166.31473337 -136.68073735 165.45329258 -134.69140625 164.62890625 C-122.04616179 159.24224067 -111.04186694 151.26941564 -101 142 C-99.88044922 141.00226563 -99.88044922 141.00226563 -98.73828125 139.984375 C-91.95489641 133.64077739 -85.88931355 125.43366939 -82 117 C-81.34 117 -80.68 117 -80 117 C-79.8453125 115.7315625 -79.8453125 115.7315625 -79.6875 114.4375 C-79.0662654 111.33132698 -78.11394936 108.77458158 -76.8203125 105.8984375 C-74.86646696 101.37668068 -73.32277104 96.74340276 -72.42578125 91.8984375 C-72.22339844 90.83882813 -72.02101563 89.77921875 -71.8125 88.6875 C-71.65394531 87.70136719 -71.49539063 86.71523438 -71.33203125 85.69921875 C-69.29151968 81.56434047 -66.19929046 80.56677005 -62 79 C-58.5533779 77.83963838 -55.07888198 76.86281478 -51.5625 75.9375 C-50.60835205 75.68000977 -49.6542041 75.42251953 -48.67114258 75.15722656 C-41.84230798 73.36079396 -35.00504952 71.94379212 -28.01586914 70.93725586 C-26.33387944 70.6843642 -24.66441036 70.35040218 -23 70 C-22.67 69.34 -22.34 68.68 -22 68 C-24.03009169 67.32330277 -26.06168283 66.65097705 -28.09765625 65.9921875 C-30.1055501 65.30577426 -32.09256776 64.55627516 -34.05859375 63.7578125 C-46.04756172 59.15818574 -58.26199843 58.64559367 -71 58 C-71 56.68 -71 55.36 -71 54 C-70.2265625 53.91363281 -69.453125 53.82726562 -68.65625 53.73828125 C-60.25280824 52.60464864 -54.51334458 50.69825745 -48.625 44.5 C-45.70247552 40.00380849 -44.72264564 36.36145551 -44.75 31 C-44.74484375 29.989375 -44.7396875 28.97875 -44.734375 27.9375 C-44.85583329 24.98368108 -44.85583329 24.98368108 -46.078125 22.375 C-47 20 -47 20 -46.828125 17.83984375 C-44.39913743 12.44336665 -36.60250882 10.35073888 -31.5 8.375 C-29.33503518 7.5786911 -27.16852301 6.78656754 -25 6 C-23.62455162 5.45947292 -22.24947329 4.91800179 -20.875 4.375 C-13.94855337 1.80693186 -7.41457715 -0.0901721 0 0 Z " fill="#0D0D0D" transform="translate(353,205)"/>
<path d="M0 0 C0.99 0 1.98 0 3 0 C3.21914063 0.59425781 3.43828125 1.18851563 3.6640625 1.80078125 C5.8702294 7.56730693 8.46965572 12.9031913 11.53515625 18.26171875 C12.86016994 20.73861101 13.95034138 23.24044177 15.03344727 25.82885742 C17.81556247 32.07825134 21.06936696 38.12701951 24.17382812 44.22070312 C27.08892361 49.99386692 29.78470708 55.74279967 32.11206055 61.77661133 C33.43997614 65.10169445 35.04394922 68.2596298 36.6875 71.4375 C40.29505332 78.51245709 43.70539249 85.66845129 47.0300293 92.88061523 C47.3887915 93.64962158 47.74755371 94.41862793 48.1171875 95.2109375 C48.43284668 95.89462402 48.74850586 96.57831055 49.07373047 97.28271484 C49.99384125 99.18495189 49.99384125 99.18495189 52 101 C52 101.99 52 102.98 52 104 C48.24173159 103.41270525 45.43231003 102.34499847 42.12109375 100.48828125 C41.19876953 99.97716797 40.27644531 99.46605469 39.32617188 98.93945312 C38.37291016 98.40255859 37.41964844 97.86566406 36.4375 97.3125 C28.71168783 92.9952925 20.92779795 88.96389897 13 85 C13 110.41 13 135.82 13 162 C9.37 161.67 5.74 161.34 2 161 C-0.23203907 160.90222437 -2.46536859 160.82742848 -4.69921875 160.7890625 C-5.84583984 160.76070312 -6.99246094 160.73234375 -8.17382812 160.703125 C-10.52782921 160.65078479 -12.88202475 160.60659235 -15.23632812 160.5703125 C-22.69608796 160.36835623 -29.26898784 160.15650232 -35.20703125 155.1328125 C-35.73683594 154.47023437 -36.26664062 153.80765625 -36.8125 153.125 C-37.35519531 152.46757812 -37.89789063 151.81015625 -38.45703125 151.1328125 C-41.47833669 146.95652701 -43.32612923 143.70946765 -43.921875 138.53515625 C-44.12345215 136.97390015 -44.12345215 136.97390015 -44.32910156 135.38110352 C-44.46799805 134.28596436 -44.60689453 133.1908252 -44.75 132.0625 C-46.79580364 117.89134425 -50.96026611 107.81973296 -60.49609375 96.890625 C-62 95 -62 95 -62 93 C-59.86960637 91.16881896 -57.7324574 89.44867038 -55.5 87.75 C-54.8615918 87.25781982 -54.22318359 86.76563965 -53.56542969 86.25854492 C-52.29385565 85.28002644 -51.02012645 84.30430148 -49.74414062 83.33154297 C-48.27566911 82.21045623 -46.81642304 81.07730021 -45.359375 79.94140625 C-40.25539568 76 -40.25539568 76 -38 76 C-38 75.34 -38 74.68 -38 74 C-44.6 74 -51.2 74 -58 74 C-56.89253564 69.57014257 -54.92745929 67.01696002 -52.125 63.5625 C-51.38733398 62.63824219 -51.38733398 62.63824219 -50.63476562 61.6953125 C-46.88267389 57.02073197 -43.01890995 52.44498089 -39.12304688 47.89013672 C-35.86064049 44.06130829 -32.71709593 40.15483334 -29.625 36.1875 C-24.04789863 29.03282416 -18.36308096 21.97146931 -12.60644531 14.96044922 C-11.53460912 13.65241812 -10.46624791 12.34153186 -9.40136719 11.02783203 C-7.90112036 9.17802675 -6.38972381 7.33795688 -4.875 5.5 C-4.42576172 4.94175537 -3.97652344 4.38351074 -3.51367188 3.80834961 C-2.40850002 2.48099747 -1.21073281 1.23182572 0 0 Z " fill="#1B1A1A" transform="translate(339,27)"/>
<path d="M0 0 C-1.32948788 3.08467384 -2.54928913 4.67499622 -5.3125 6.5625 C-22.03861947 18.65584537 -36.90919208 33.27708985 -49 50 C-49.63929443 50.87277588 -49.63929443 50.87277588 -50.29150391 51.76318359 C-62.55490761 68.67582321 -71.47853423 88.32162544 -75 109 C-75.11085937 109.64066406 -75.22171875 110.28132813 -75.3359375 110.94140625 C-77.06918272 123.28492287 -76.30382588 135.80822071 -74 148 C-73.66327796 149.99943226 -73.32900668 151.9992837 -73 154 C-76.14302949 153.71491796 -77.01923457 152.97880412 -79.18359375 150.59375 C-97.56369325 125.36491325 -100.57666023 99.32496251 -96.06640625 68.9140625 C-94.48177325 59.42529913 -91.79581421 50.19322316 -89 41 C-96.51358094 45.10730441 -101.67876028 49.49468891 -106 57 C-106.66 57 -107.32 57 -108 57 C-108.29132813 55.98421875 -108.58265625 54.9684375 -108.8828125 53.921875 C-112.70839572 40.93010562 -117.90724283 29.93463236 -126 19 C-126.98137163 17.62657287 -127.96080354 16.25175575 -128.9375 14.875 C-129.9584375 13.451875 -129.9584375 13.451875 -131 12 C-127.82963413 12.58329242 -126.19101573 13.47040957 -123.875 15.6875 C-120.22095253 18.99126841 -116.23824263 21.32097428 -111.94140625 23.703125 C-111.30074219 24.13109375 -110.66007812 24.5590625 -110 25 C-110 25.66 -110 26.32 -110 27 C-107.94062608 27.69809285 -105.8795512 28.39138484 -103.8125 29.06640625 C-101.86542573 29.71272674 -99.92824638 30.389348 -98 31.08984375 C-87.61172805 34.6671776 -76.87869149 36.21862481 -66.609375 31.453125 C-61.53147676 28.62531341 -56.69171031 25.46337613 -51.86279297 22.23632812 C-48.70412307 20.13993175 -45.50627903 18.10482884 -42.3125 16.0625 C-39.19421809 14.0621008 -36.08269835 12.05513223 -33 10 C-31.68 10 -30.36 10 -29 10 C-29 9.34 -29 8.68 -29 8 C-26.64756508 7.03722741 -24.29320381 6.07971502 -21.9375 5.125 C-21.28072266 4.85558594 -20.62394531 4.58617188 -19.94726562 4.30859375 C-13.27161952 1.61202734 -7.29849868 -0.29789791 0 0 Z " fill="#1B558D" transform="translate(282,105)"/>
<path d="M0 0 C9.75460806 8.67076272 13.47891488 23.34731664 14.50390625 36.0078125 C14.73705176 39.97128618 14.84911406 43.93522217 14.93505859 47.90429688 C15.07081912 52.2853809 15.53982545 56.64302823 16 61 C16.66 61 17.32 61 18 61 C18.680625 62.0725 19.36125 63.145 20.0625 64.25 C23.94726408 69.79166634 28.80832203 71.4104783 35.3203125 72.61328125 C39.20693839 73.15377806 43.09698357 73.60037062 47 74 C49.91767189 74.30375943 52.83434321 74.61494714 55.75 74.9375 C56.46148193 75.01613281 57.17296387 75.09476562 57.90600586 75.17578125 C63.78038531 75.87321482 69.3673101 77.17515446 75 79 C72.11726498 80.58531892 69.57406963 81.39925494 66.33984375 81.96484375 C35.55050289 87.77340924 3.29823702 103.71153281 -15 130 C-22.56105136 141.41522365 -28.67947055 154.41962877 -31 168 C-33.75212431 165.24787569 -34.16622616 162.10779248 -35.0625 158.4375 C-35.85555246 153.85324462 -35.85555246 153.85324462 -38 150 C-39.48191785 128.40286942 -32.9691167 111.27883042 -22.88012695 92.43286133 C-19.90272235 86.83156689 -17.14045411 81.17096885 -14.5625 75.375 C-14.24498779 74.66585449 -13.92747559 73.95670898 -13.6003418 73.22607422 C-3.18895938 49.42782969 -0.4900476 25.68824121 0 0 Z " fill="#1A4F83" transform="translate(244,193)"/>
<path d="M0 0 C0.66 0 1.32 0 2 0 C0.36305979 10.47641734 0.36305979 10.47641734 -1.5625 14.875 C-5.22077731 24.18697862 -4.11394115 35.41236318 -4.1875 45.25 C-4.20063232 46.36294434 -4.21376465 47.47588867 -4.22729492 48.62255859 C-4.2335437 55.0568736 -3.68071688 60.79705026 -2 67 C-1.71640625 68.24523437 -1.4328125 69.49046875 -1.140625 70.7734375 C1.6764923 82.16546449 6.0512608 91.14261012 13.6796875 100.125 C15 102 15 102 15 105 C11.01863474 105.86498074 7.03508787 106.71902534 3.04931641 107.56347656 C1.69680357 107.85157436 0.34489628 108.14253169 -1.00634766 108.43652344 C-14.82514216 111.43927701 -14.82514216 111.43927701 -22 111 C-22.54269531 110.00742187 -23.08539063 109.01484375 -23.64453125 107.9921875 C-35.0334707 88.09530514 -50.71853392 72.82205203 -73 66 C-76.99864559 65.21930381 -80.76504044 64.88045721 -84.8359375 64.90234375 C-86.43115234 64.90717773 -86.43115234 64.90717773 -88.05859375 64.91210938 C-89.70021484 64.92467773 -89.70021484 64.92467773 -91.375 64.9375 C-92.49261719 64.94201172 -93.61023438 64.94652344 -94.76171875 64.95117188 C-97.50786804 64.96290756 -100.25390586 64.97932637 -103 65 C-101.70415779 61.11247336 -99.36437844 59.78771524 -96.125 57.5625 C-95.05507812 56.80066406 -93.98515625 56.03882813 -92.8828125 55.25390625 C-80.47958002 47.6973699 -68.07722958 48.47535665 -54.01904297 48.5847168 C-51.23881918 48.59931932 -48.45986712 48.58394044 -45.6796875 48.56640625 C-44.84194794 48.58288712 -44.00420837 48.59936798 -43.14108276 48.61634827 C-36.02351976 48.55679993 -30.44041761 46.17604197 -25.18786621 41.32711792 C-21.17678473 37.07576606 -18.93112066 32.11951695 -16.625 26.8125 C-12.20566972 17.06566754 -7.06234476 8.12533685 0 0 Z " fill="#DE2725" transform="translate(185,156)"/>
<path d="M0 0 C-0.52268466 2.76276177 -1.10869587 5.3260876 -2 8 C-2.66 8 -3.32 8 -4 8 C-4.0825 8.82757813 -4.165 9.65515625 -4.25 10.5078125 C-5.16927258 14.78817547 -6.85512345 18.08876429 -9 21.875 C-9.39864258 22.58172852 -9.79728516 23.28845703 -10.20800781 24.01660156 C-14.22328551 30.84099903 -19.2255479 35.30396279 -25.625 39.875 C-33.4358883 46.86368953 -39.45721299 57.61789851 -40.140625 68.17163086 C-40.53432454 78.20407929 -40.79326957 87.43279165 -36.875 96.8203125 C-36 99 -36 99 -36 102 C-44.74325704 97.9586723 -49.52602778 91.25964102 -54 83 C-54.67417969 82.03191406 -55.34835938 81.06382812 -56.04296875 80.06640625 C-59.19129387 74.57133713 -59.35208609 68.11459671 -60.0625 61.9375 C-60.35591198 59.44542009 -60.65897338 56.95445334 -60.97265625 54.46484375 C-61.09906494 53.367771 -61.22547363 52.27069824 -61.35571289 51.14038086 C-62.06005678 47.70727156 -63.37147443 45.08619579 -65 42 C-65 41.34 -65 40.68 -65 40 C-65.59216309 39.70867187 -66.18432617 39.41734375 -66.79443359 39.1171875 C-68.65488414 38.17481184 -70.47727517 37.15784789 -72.2890625 36.125 C-78.59367856 32.9741507 -85.56068293 31.6410773 -92.375 30 C-117.31520561 23.96246559 -117.31520561 23.96246559 -122 18 C-121.05423096 17.98598145 -121.05423096 17.98598145 -120.08935547 17.97167969 C-99.78422367 17.60017772 -79.20107859 16.20436884 -59.38378906 11.49194336 C-56.40208724 10.87660854 -53.41285511 10.49166612 -50.39453125 10.09375 C-42.70161493 9.03536678 -35.22995382 7.32546477 -27.6875 5.5 C-26.38230294 5.18820925 -25.07696447 4.8770098 -23.77148438 4.56640625 C-21.28552712 3.97445118 -18.79968115 3.38202854 -16.31396484 2.7890625 C-15.22035645 2.52867187 -14.12674805 2.26828125 -13 2 C-11.62448975 1.67128906 -11.62448975 1.67128906 -10.22119141 1.3359375 C-6.69364005 0.51695153 -3.64202219 0 0 0 Z " fill="#DD2523" transform="translate(229,259)"/>
<path d="M0 0 C0.99 0 1.98 0 3 0 C4.51677087 5.40359037 5.29911991 10.31625208 5.265625 15.9453125 C5.26849518 17.04382034 5.26849518 17.04382034 5.27142334 18.16452026 C5.2727751 19.70571234 5.26914974 21.2469162 5.26074219 22.78808594 C5.25012144 25.09858041 5.26062346 27.40828076 5.2734375 29.71875 C5.28995504 43.04134978 4.31738302 55.39263007 -1.0625 67.75 C-1.42666016 68.62398438 -1.79082031 69.49796875 -2.16601562 70.3984375 C-3.38108319 73.30022547 -4.59289647 76.18579294 -6 79 C-9 78 -9 78 -10.31640625 75.78515625 C-10.72761719 74.88667969 -11.13882813 73.98820312 -11.5625 73.0625 C-13.32437611 69.21922924 -13.32437611 69.21922924 -16 66 C-16 64.68 -16 63.36 -16 62 C-16.66 62 -17.32 62 -18 62 C-18.556875 60.906875 -19.11375 59.81375 -19.6875 58.6875 C-21.58959869 55.31962633 -23.44629125 53.67814024 -27 52 C-26.83886719 53.11761719 -26.67773438 54.23523438 -26.51171875 55.38671875 C-25.91438673 60.20237779 -25.80795757 64.96391233 -25.8125 69.8125 C-25.8137085 71.17205811 -25.8137085 71.17205811 -25.81494141 72.55908203 C-25.87080384 78.86715516 -26.22486972 85.10077623 -26.875 91.375 C-26.95339111 92.14046143 -27.03178223 92.90592285 -27.11254883 93.69458008 C-27.64540851 98.30639636 -28.65586919 102.54314521 -30 107 C-30.28359375 108.27359375 -30.5671875 109.5471875 -30.859375 110.859375 C-31.15328125 112.14328125 -31.4471875 113.4271875 -31.75 114.75 C-31.88148438 115.40871094 -32.01296875 116.06742187 -32.1484375 116.74609375 C-33.00776322 120.33632747 -33.68000815 121.78321679 -36.7734375 123.87890625 C-39.83059677 124.94113956 -42.68184795 125.68126858 -45.875 126.1875 C-46.84179688 126.34605469 -47.80859375 126.50460937 -48.8046875 126.66796875 C-49.89136719 126.83232422 -49.89136719 126.83232422 -51 127 C-58.12065393 99.94151505 -53.6685847 71.4359254 -40.375 47 C-30.43723673 30.03526703 -17.15364061 14.50582706 -2 2 C-1.34 1.34 -0.68 0.68 0 0 Z " fill="#090809" transform="translate(266,130)"/>
<path d="M0 0 C8.73877054 3.73981793 13.43555143 15.25464146 17.125 23.5 C19.18250354 28.77183639 20.06104981 34.18333562 20.87353516 39.75976562 C22.18693573 48.40278873 25.1558081 56.35827856 31 63 C36.91152195 67.14603851 42.71724495 68.11039277 49.828125 68.17578125 C51.19223854 68.19597143 52.5563339 68.21742093 53.92041016 68.23999023 C54.62868958 68.25117889 55.33696899 68.26236755 56.06671143 68.27389526 C68.14706411 68.48749911 79.48217312 68.9733191 91 73 C92.12148438 73.37253906 93.24296875 73.74507813 94.3984375 74.12890625 C95.25695312 74.41636719 96.11546875 74.70382813 97 75 C97 75.66 97 76.32 97 77 C96.05253906 77.02803711 96.05253906 77.02803711 95.0859375 77.05664062 C74.00480783 77.83123545 54.58924899 82.00608678 36.609375 93.43359375 C34.28108672 94.83126381 32.69140231 95.7647175 30 96 C26.9375 94.125 26.9375 94.125 24 92 C18.2505883 90.08352943 11.36146416 89.88854814 5.578125 91.80078125 C-1.14202716 95.5906345 -4.72389106 102.24876615 -8 109 C-8.33 109 -8.66 109 -9 109 C-10.43818427 102.52232453 -11.44686928 95.78656306 -8.3125 89.75 C-7.94898438 89.21375 -7.58546875 88.6775 -7.2109375 88.125 C-4.23771018 82.9074656 -2.76410199 76.71853194 -1 71 C-0.69835937 70.02289063 -0.39671875 69.04578125 -0.0859375 68.0390625 C3.40237359 56.02376873 4.30667876 44.21986186 4.1875 31.75 C4.18685547 30.45320313 4.18621094 29.15640625 4.18554688 27.8203125 C4.15490666 21.13393735 3.90423064 14.62620214 3 8 C2.34 8 1.68 8 1 8 C0.67 5.36 0.34 2.72 0 0 Z " fill="#E22B28" transform="translate(271,123)"/>
<path d="M0 0 C1.765625 0.9921875 1.765625 0.9921875 4.703125 3.2421875 C6.064375 4.20125 6.064375 4.20125 7.453125 5.1796875 C11.6235898 9.00261357 13.42187692 13.0132432 13.90625 18.57421875 C14.06414895 26.92970484 11.86331285 32.53749992 6.25 38.734375 C1.89667068 42.97777176 -2.66610012 44.37690531 -8.609375 44.4296875 C-16.04446757 44.30780074 -20.91951025 42.50005525 -26.296875 37.2421875 C-31.76478653 30.00089926 -32.23765304 23.17957889 -31.296875 14.2421875 C-28.95259275 7.89645797 -24.15556774 3.67745136 -18.5390625 0.1328125 C-13.10883171 -2.02414328 -5.51353155 -1.81909034 0 0 Z " fill="#E52B28" transform="translate(330.296875,138.7578125)"/>
<path d="M0 0 C-0.69254163 2.32421169 -1.39063091 4.64616321 -2.1015625 6.96484375 C-2.70012299 8.98693725 -3.2576835 11.02162397 -3.7734375 13.06640625 C-7.46727037 26.87591904 -15.85060683 37.26637338 -25 48 C-25.95903732 49.22861747 -26.91751303 50.45767392 -27.875 51.6875 C-28.57625 52.450625 -29.2775 53.21375 -30 54 C-30.99 54 -31.98 54 -33 54 C-33.20367187 54.556875 -33.40734375 55.11375 -33.6171875 55.6875 C-35.52251846 58.87381617 -38.19677887 60.81219166 -41.125 63 C-41.70886475 63.44061768 -42.29272949 63.88123535 -42.89428711 64.33520508 C-47.08304457 67.44101267 -51.10040424 70.12924526 -56 72 C-58.21484375 71.58203125 -58.21484375 71.58203125 -60 71 C-55.69367433 52.30663175 -48.84374048 38.16042886 -36 24 C-35.34128906 23.2575 -34.68257812 22.515 -34.00390625 21.75 C-26.61630507 13.86989207 -11.10043046 0 0 0 Z " fill="#C3C0B3" transform="translate(277,291)"/>
<path d="M0 0 C4.65162566 4.22956696 7.51685523 7.78634401 8.23828125 14.078125 C8.48868401 21.40570059 6.372831 26.17825503 1.6875 31.75 C-3.74897514 36.30146756 -7.67178188 38.69981406 -14.80078125 38.3125 C-21.13942388 37.41180478 -24.78152475 34.6621703 -28.73828125 29.9140625 C-32.7949482 23.7599857 -32.985121 17.1550894 -32 10 C-29.25440072 3.97861676 -24.25518613 -0.29792555 -18.125 -2.75 C-11.58958494 -3.51887236 -5.7489412 -3.46997845 0 0 Z " fill="#0A0909" transform="translate(221,90)"/>
<path d="M0 0 C5.52898306 2.77852448 10.03460914 6.41002591 12.55859375 12.16015625 C13.90561601 19.32475292 12.91129386 25.19199055 8.98828125 31.3203125 C6.14606655 34.97791666 2.800232 37.38719635 -1.44140625 39.16015625 C-6.92898099 39.81744236 -11.84199507 39.91624154 -16.87890625 37.53515625 C-21.48706823 33.26417685 -25.93644364 28.88093336 -26.8125 22.42578125 C-26.96958532 15.29225972 -26.23783353 10.58562317 -21.44140625 5.16015625 C-15.10392615 -0.71360579 -8.41192599 -2.89370254 0 0 Z " fill="#E62E2B" transform="translate(145.44140625,156.83984375)"/>
<path d="M0 0 C-1.51852477 3.83945182 -3.77802738 5.67491055 -7 8.1875 C-21.7219951 19.94212288 -34.88822584 32.78706067 -46 48 C-46.43054688 48.58620117 -46.86109375 49.17240234 -47.3046875 49.77636719 C-59.56105827 66.68458778 -68.4799402 86.32988141 -72 107 C-72.11085937 107.64066406 -72.22171875 108.28132813 -72.3359375 108.94140625 C-74.06918272 121.28492287 -73.30382588 133.80822071 -71 146 C-70.66327796 147.99943226 -70.32900668 149.9992837 -70 152 C-73.25929537 151.73895804 -74.08590223 150.90456912 -76.32421875 148.41796875 C-77.12283582 147.34917277 -77.91031199 146.27197816 -78.6875 145.1875 C-79.47511719 144.12917969 -80.26273438 143.07085937 -81.07421875 141.98046875 C-82.68910871 139.4811563 -83.58675641 137.89270513 -84 135 C-82.35 134.67 -80.7 134.34 -79 134 C-78.99589111 133.22213135 -78.99178223 132.4442627 -78.98754883 131.64282227 C-78.78886108 109.98585768 -78.48490672 86.5375968 -68 67 C-67.49629883 66.05954834 -67.49629883 66.05954834 -66.98242188 65.10009766 C-64.41525596 60.34414376 -61.73589963 55.66049033 -59 51 C-58.46503906 50.07703125 -57.93007812 49.1540625 -57.37890625 48.203125 C-56.31817232 46.42789077 -55.1715801 44.70411651 -54 43 C-53.34 43 -52.68 43 -52 43 C-51.73960937 42.4328125 -51.47921875 41.865625 -51.2109375 41.28125 C-49.89131636 38.79525405 -48.36127991 36.71394643 -46.625 34.5 C-46.03976563 33.7471875 -45.45453125 32.994375 -44.8515625 32.21875 C-43.00014179 30.0001699 -41.14279458 27.93997863 -39 26 C-38.34 26 -37.68 26 -37 26 C-36.7421875 25.40703125 -36.484375 24.8140625 -36.21875 24.203125 C-34.90230105 21.82339035 -33.57419218 20.49021208 -31.5 18.75 C-30.8915625 18.22921875 -30.283125 17.7084375 -29.65625 17.171875 C-28 16 -28 16 -26 16 C-26 15.34 -26 14.68 -26 14 C-25.360625 13.896875 -24.72125 13.79375 -24.0625 13.6875 C-23.381875 13.460625 -22.70125 13.23375 -22 13 C-21.67 12.01 -21.34 11.02 -21 10 C-18.72682907 8.53203156 -16.50049592 7.21533663 -14.125 5.9375 C-3.33944954 0 -3.33944954 0 0 0 Z " fill="#102D58" transform="translate(279,107)"/>
<path d="M0 0 C3.11245052 1.21155792 5.45552445 2.85849569 8 5 C8.99 5.78375 9.98 6.5675 11 7.375 C14.27259926 11.66400381 13.72837582 17.21798722 13.546875 22.35546875 C12.75858566 27.60885414 10.97982173 30.55966521 7 34 C6.48179687 34.44988281 5.96359375 34.89976562 5.4296875 35.36328125 C0.48454334 38.83921592 -5.17521037 38.87107881 -11 38 C-17.93410125 34.59598666 -21.52113607 29.1887054 -24 22 C-24.55612714 16.80948007 -23.93669281 12.37133945 -21 8 C-14.33005156 1.15273187 -9.64516735 -1.14699287 0 0 Z " fill="#C82121" transform="translate(146,301)"/>
<path d="M0 0 C3.48650848 2.34350879 7.16683024 5.09033446 8.53515625 9.1953125 C9.80404057 16.53277399 8.97529105 22.00749664 4.89453125 28.2734375 C2.56803183 31.55622809 0.8390472 33.95859885 -3.10546875 35.2734375 C-15.71261472 36.21942825 -15.71261472 36.21942825 -21.10546875 32.2734375 C-25.4642732 27.91463305 -28.38808345 23.77942768 -28.41796875 17.5234375 C-28.27972175 12.00168959 -27.50833497 6.98701918 -23.74609375 2.73828125 C-16.47535917 -3.68919803 -8.39039049 -4.66684441 0 0 Z " fill="#070707" transform="translate(296.10546875,219.7265625)"/>
<path d="M0 0 C0.66 0 1.32 0 2 0 C1.76017727 7.39388957 0.2178609 12.75369646 -3.5 19.125 C-3.94561279 19.90762207 -4.39122559 20.69024414 -4.8503418 21.49658203 C-8.37816554 27.45637626 -12.29980328 31.99507137 -18 36 C-26.23646081 41.88318629 -31.93052655 51.41656038 -34.58203125 61.1328125 C-36.21294051 72.32054518 -36.26293283 84.30755675 -31.875 94.8203125 C-31 97 -31 97 -31 100 C-35.59769874 98.05481976 -39.62284351 95.51369455 -42.05078125 91.08203125 C-46.86017745 77.83909669 -44.53749482 61.98319686 -40 49 C-39.34 48.34 -38.68 47.68 -38 47 C-37.608125 46.030625 -37.21625 45.06125 -36.8125 44.0625 C-32.10823772 32.82325269 -23.2528466 21.02656573 -14 13 C-13.34 13 -12.68 13 -12 13 C-11.7525 12.41476562 -11.505 11.82953125 -11.25 11.2265625 C-9.81592202 8.67211111 -8.24285666 7.24679581 -6 5.375 C-3.92339664 3.6266832 -1.92037235 1.92037235 0 0 Z " fill="#911614" transform="translate(224,261)"/>
<path d="M0 0 C-0.33 1.65 -0.66 3.3 -1 5 C-1.66 5 -2.32 5 -3 5 C-8.07187036 21.87604483 -8.67436211 42.48151184 -2 59 C-1.45988281 59.87140625 -0.91976562 60.7428125 -0.36328125 61.640625 C1 64 1 64 1 68 C-11.19659395 72.85796539 -23.86392338 75.63079588 -36.6875 78.25 C-37.53691162 78.4253125 -38.38632324 78.600625 -39.26147461 78.78125 C-43.22789341 79.56936967 -46.93249829 80.23195529 -51 80 C-48.26748208 77.09669971 -45.56174301 74.62585557 -42.3125 72.3125 C-37.75122873 69.02353779 -34.08121018 65.01877611 -30.296875 60.87890625 C-28 59 -28 59 -25.9140625 59.08984375 C-23.49281642 60.24117097 -21.22885178 61.61078748 -18.9765625 63.0625 C-16.37726886 64.29536655 -13.83620666 64.6165129 -11 65 C-11.27714844 63.89140625 -11.55429688 62.7828125 -11.83984375 61.640625 C-12.89322917 57.42708333 -13.94661458 53.21354167 -15 49 C-15.18159668 48.33726074 -15.36319336 47.67452148 -15.55029297 46.99169922 C-18.70282249 33.02951908 -15.28837664 17.96393901 -8 6 C-3.25373134 0 -3.25373134 0 0 0 Z " fill="#AAA79A" transform="translate(209,301)"/>
<path d="M0 0 C0.66 1.32 1.32 2.64 2 4 C2.66 3.01 3.32 2.02 4 1 C4.99 1 5.98 1 7 1 C7.66 0.67 8.32 0.34 9 0 C8.835 0.61875 8.67 1.2375 8.5 1.875 C7.30943348 9.31604077 7.06702133 15.04046187 11.5625 21.375 C13.45840003 23.51819133 15.40842904 24.80927821 18 26 C18.66 26.33 19.32 26.66 20 27 C21.97724061 27.09672832 23.9579006 27.12979903 25.9375 27.125 C26.99839844 27.12757813 28.05929687 27.13015625 29.15234375 27.1328125 C32.38463212 26.98206105 34.30065863 26.76162368 36.53515625 24.328125 C37.03917969 23.64234375 37.54320312 22.9565625 38.0625 22.25 C38.56910156 21.57453125 39.07570313 20.8990625 39.59765625 20.203125 C42.38559521 15.82318747 43.24988095 12.37005944 43.125 7.1875 C43.10695313 6.21167969 43.08890625 5.23585937 43.0703125 4.23046875 C43.04710937 3.49441406 43.02390625 2.75835937 43 2 C43.66 2.33 44.32 2.66 45 3 C45.02694851 4.95825873 45.04637218 6.91662226 45.0625 8.875 C45.07410156 9.96554688 45.08570313 11.05609375 45.09765625 12.1796875 C45 15 45 15 44 17 C44.66 17 45.32 17 46 17 C45.06834539 21.82766478 42.59992865 24.74723428 39 28 C33.08236368 31.80815996 27.92388218 32.43961157 21 32 C21 33.32 21 34.64 21 36 C22.09957031 35.97679687 23.19914062 35.95359375 24.33203125 35.9296875 C37.53573877 35.73210339 48.50340533 37.50733246 61 42 C61 43.65 61 45.3 61 47 C57.91979223 47.70204038 54.83548264 48.38405208 51.75 49.0625 C50.87730469 49.26166016 50.00460937 49.46082031 49.10546875 49.66601562 C47.83896484 49.94155273 47.83896484 49.94155273 46.546875 50.22265625 C45.77182617 50.39547119 44.99677734 50.56828613 44.19824219 50.74633789 C41.84824709 51.01751125 40.23802732 50.71554459 38 50 C43.33835539 48.07528683 48.34979382 46.60108576 54 46 C45.97877027 41.70696328 36.80955356 41.49855444 27.90429688 40.87695312 C18.38778308 40.09852053 8.72467822 38.35463531 2.125 30.875 C1 29 1 29 1 27 C0.34 27 -0.32 27 -1 27 C-3.04404545 18.2215548 -3.21767642 9.96101244 -3 1 C-2.01 1.33 -1.02 1.66 0 2 C0 1.34 0 0.68 0 0 Z " fill="#EEF0F2" transform="translate(261,227)"/>
<path d="M0 0 C1.765625 0.9921875 1.765625 0.9921875 4.703125 3.2421875 C6.064375 4.20125 6.064375 4.20125 7.453125 5.1796875 C11.6235898 9.00261357 13.42187692 13.0132432 13.90625 18.57421875 C14.06414895 26.92970484 11.86331285 32.53749992 6.25 38.734375 C1.89667068 42.97777176 -2.66610012 44.37690531 -8.609375 44.4296875 C-16.04446757 44.30780074 -20.91951025 42.50005525 -26.296875 37.2421875 C-31.76478653 30.00089926 -32.23765304 23.17957889 -31.296875 14.2421875 C-28.95259275 7.89645797 -24.15556774 3.67745136 -18.5390625 0.1328125 C-13.10883171 -2.02414328 -5.51353155 -1.81909034 0 0 Z M-24.296875 10.2421875 C-28.20205741 15.6927857 -28.06446273 20.74787784 -27.296875 27.2421875 C-25.56646434 32.64849876 -21.80248956 36.05071052 -17.296875 39.2421875 C-12.10988265 40.87298631 -6.80727157 41.45587529 -1.81640625 39.04296875 C3.11804136 35.84724983 6.79734066 32.95954052 8.703125 27.2421875 C9.34392967 21.91913965 9.90188276 16.60681028 7.421875 11.71484375 C2.81473778 6.09204218 -2.2787828 3.64399672 -9.421875 2.9296875 C-15.80305874 3.62329443 -19.65673044 5.80827159 -24.296875 10.2421875 Z " fill="#ECE5E5" transform="translate(330.296875,138.7578125)"/>
<path d="M0 0 C2.475 0.495 2.475 0.495 5 1 C5 1.99 5 2.98 5 4 C5.7425 4.28875 6.485 4.5775 7.25 4.875 C10 6 10 6 11.8046875 7.05078125 C16.23772662 8.96755795 21.27117202 8.43621542 26 8 C29.5047765 6.67014431 29.5047765 6.67014431 32 5 C32.66 5 33.32 5 34 5 C33.63265306 11.36734694 33.63265306 11.36734694 30.6875 14.3125 C24.38539472 18.26963587 19.44989412 18.79998863 12 18 C7.15680423 15.71048927 3.9846282 12.43430475 1 8 C0.32914105 5.26723635 0.14648208 2.83198691 0 0 Z " fill="#8E1B1A" transform="translate(120,178)"/>
<path d="M0 0 C0.33 0 0.66 0 1 0 C1 1.98 1 3.96 1 6 C1.66 6 2.32 6 3 6 C5.18970608 13.9594078 5.29905491 21.52512654 5.25 29.75 C5.25773437 31.03132813 5.26546875 32.31265625 5.2734375 33.6328125 C5.25023053 45.07384869 3.63583979 55.89181803 1 67 C0.67 67 0.34 67 0 67 C-0.495 64.525 -0.495 64.525 -1 62 C-1.33 62 -1.66 62 -2 62 C-1.9292627 61.19675293 -1.85852539 60.39350586 -1.78564453 59.56591797 C-1.0555626 50.50340714 -0.84442898 41.51716951 -0.86962891 32.4296875 C-0.87504263 30.10670598 -0.86961753 27.78391361 -0.86328125 25.4609375 C-0.86394135 23.95572875 -0.8652211 22.45052011 -0.8671875 20.9453125 C-0.86516327 20.26493927 -0.86313904 19.58456604 -0.86105347 18.88357544 C-0.88377854 14.16191564 -1.19633617 9.64699681 -2 5 C-2.66 4.67 -3.32 4.34 -4 4 C-3.01 3.67 -2.02 3.34 -1 3 C-0.67 2.01 -0.34 1.02 0 0 Z " fill="#F2E3E2" transform="translate(271,125)"/>
<path d="M0 0 C0.8723412 2.99480917 1.10829766 5.63575911 1.0625 8.75 C1.05347656 9.54921875 1.04445313 10.3484375 1.03515625 11.171875 C1.01775391 12.07679688 1.01775391 12.07679688 1 13 C1.33 10.36 1.66 7.72 2 5 C2.33 5 2.66 5 3 5 C3.08636719 5.86882812 3.17273438 6.73765625 3.26171875 7.6328125 C4.31798019 16.98447753 4.31798019 16.98447753 10 24 C15.15578902 26.97449367 20.15129644 28.19898423 26 27 C30.90380689 24.74207626 34.23792219 22.24703642 37.0625 17.625 C37.371875 16.75875 37.68125 15.8925 38 15 C38.99 15.33 39.98 15.66 41 16 C40.93268212 19.36589376 40.80371347 22.01186502 38.62109375 24.6953125 C32.83828588 29.84421078 26.99576029 32.5364359 19.19921875 32.21875 C12.6738289 31.56968813 8.67998265 29.57598303 4 25 C-0.34305957 19.24838057 -1.14105809 15.48873274 -1.125 8.375 C-1.12757813 7.22773438 -1.13015625 6.08046875 -1.1328125 4.8984375 C-1 2 -1 2 0 0 Z " fill="#E6DCDC" transform="translate(300,151)"/>
<path d="M0 0 C8.73877054 3.73981793 13.43555143 15.25464146 17.125 23.5 C19.68935827 30.102963 20.62061808 37.10475123 21.70068359 44.07226562 C22.11157215 46.71857558 22.55570195 49.35912562 23 52 C21 51 21 51 20.3671875 49.15234375 C20.20476562 48.42144531 20.04234375 47.69054687 19.875 46.9375 C19.70742188 46.20402344 19.53984375 45.47054687 19.3671875 44.71484375 C19.24601562 44.14894531 19.12484375 43.58304688 19 43 C18.34 43 17.68 43 17 43 C16.87882812 41.84242188 16.75765625 40.68484375 16.6328125 39.4921875 C16.46388684 37.95308708 16.29459668 36.41402663 16.125 34.875 C16.00705078 33.73417969 16.00705078 33.73417969 15.88671875 32.5703125 C15.39026335 28.14040279 14.59599921 24.19788029 13 20 C12.34 20 11.68 20 11 20 C11 19.34 11 18.68 11 18 C9.68 18.33 8.36 18.66 7 19 C6.67 26.59 6.34 34.18 6 42 C5.67 42 5.34 42 5 42 C4.97494385 41.28980713 4.9498877 40.57961426 4.92407227 39.84790039 C4.80701528 36.58596536 4.68479254 33.32424278 4.5625 30.0625 C4.52318359 28.94552734 4.48386719 27.82855469 4.44335938 26.67773438 C4.20419096 20.40416292 3.78608221 14.22920611 3 8 C2.34 8 1.68 8 1 8 C0.67 5.36 0.34 2.72 0 0 Z " fill="#E13C3C" transform="translate(271,123)"/>
<path d="M0 0 C0.8723412 2.99480917 1.10829766 5.63575911 1.0625 8.75 C1.05347656 9.54921875 1.04445313 10.3484375 1.03515625 11.171875 C1.02355469 11.77515625 1.01195312 12.3784375 1 13 C2.98 13.66 4.96 14.32 7 15 C6 18 6 18 3.3125 19.625 C-2.18887587 23.04513247 -5.25582483 29.30454209 -8 35 C-8.33 35 -8.66 35 -9 35 C-10.40781217 28.65912244 -11.74038789 21.17895426 -8.1875 15.375 C-7.82527344 14.84519531 -7.46304687 14.31539062 -7.08984375 13.76953125 C-5.05656569 10.46818731 -4.10583668 6.69449983 -3 3 C-2.34 3 -1.68 3 -1 3 C-0.67 2.01 -0.34 1.02 0 0 Z " fill="#D52F2B" transform="translate(271,197)"/>
<path d="M0 0 C0.78375 0.04125 1.5675 0.0825 2.375 0.125 C2.8125 2.25 2.8125 2.25 2.375 5.125 C-1.06362234 8.99937063 -5.49273181 12.67918734 -10.73828125 13.42578125 C-16.11129391 13.45441187 -19.94313311 12.85608902 -24.625 10.125 C-25.3125 8.015625 -25.3125 8.015625 -25.625 6.125 C-24.61179687 6.08761719 -23.59859375 6.05023438 -22.5546875 6.01171875 C-21.20309061 5.94601612 -19.85152971 5.87957029 -18.5 5.8125 C-17.83484375 5.78994141 -17.1696875 5.76738281 -16.484375 5.74414062 C-9.94173124 5.39135101 -5.51211886 0.26248185 0 0 Z " fill="#BC1D1A" transform="translate(334.625,165.875)"/>
<path d="M0 0 C1.53303423 -0.01635493 3.06599904 -0.04336426 4.59863281 -0.08203125 C15.80562052 -0.36278576 24.71154556 1.10309814 35.14672852 5.35009766 C35.14672852 5.68009766 35.14672852 6.01009766 35.14672852 6.35009766 C28.11868152 7.20383005 21.22394782 7.47119076 14.14672852 7.35009766 C13.48672852 6.03009766 12.82672852 4.71009766 12.14672852 3.35009766 C3.23672852 3.35009766 -5.67327148 3.35009766 -14.85327148 3.35009766 C-15.18327148 2.69009766 -15.51327148 2.03009766 -15.85327148 1.35009766 C-11.29435777 -0.9293592 -5.06944183 0.03940946 0 0 Z " fill="#CE2020" transform="translate(331.853271484375,192.64990234375)"/>
<path d="M0 0 C-0.66 1.32 -1.32 2.64 -2 4 C-2.33 3.34 -2.66 2.68 -3 2 C-9.96156151 4.7846246 -17.31114984 7.98979076 -23.14453125 12.75 C-24.06298828 13.36875 -24.06298828 13.36875 -25 14 C-25.99 13.67 -26.98 13.34 -28 13 C-27.67 11.68 -27.34 10.36 -27 9 C-27.66 8.67 -28.32 8.34 -29 8 C-26.64756508 7.03722741 -24.29320381 6.07971502 -21.9375 5.125 C-21.28072266 4.85558594 -20.62394531 4.58617188 -19.94726562 4.30859375 C-13.27161952 1.61202734 -7.29849868 -0.29789791 0 0 Z " fill="#3D7EB6" transform="translate(282,105)"/>
<path d="M0 0 C2.54233976 2.54233976 2.25831257 4.19389167 2.27734375 7.66430664 C2.26832031 8.41446045 2.25929687 9.16461426 2.25 9.9375 C2.24613281 10.69861084 2.24226562 11.45972168 2.23828125 12.24389648 C2.14601606 18.30841083 1.4281808 24.09600259 0 30 C-0.66 29.67 -1.32 29.34 -2 29 C-2 19.76 -2 10.52 -2 1 C-1.34 0.67 -0.68 0.34 0 0 Z " fill="#0A2144" transform="translate(203,210)"/>
<path d="M0 0 C0.66 0 1.32 0 2 0 C1.71715982 1.77226453 1.42339502 3.542788 1.125 5.3125 C0.96257812 6.29863281 0.80015625 7.28476563 0.6328125 8.30078125 C0 11 0 11 -2 14 C-2.33 12.68 -2.66 11.36 -3 10 C-5.12038635 12.61514317 -7.13091744 15.19637616 -9 18 C-9.66 18 -10.32 18 -11 18 C-10.938125 18.721875 -10.87625 19.44375 -10.8125 20.1875 C-11.03927331 23.5890997 -11.96787379 25.29049839 -14 28 C-14.99 28.33 -15.98 28.66 -17 29 C-15.6230476 24.39384957 -13.7153535 20.33078633 -11.3125 16.1875 C-10.9623584 15.58019043 -10.6122168 14.97288086 -10.25146484 14.34716797 C-7.27678616 9.28659472 -4.12303383 4.21218051 0 0 Z " fill="#D05051" transform="translate(185,156)"/>
<path d="M0 0 C0.66 0.33 1.32 0.66 2 1 C2.02694851 2.95825873 2.04637218 4.91662226 2.0625 6.875 C2.07410156 7.96554688 2.08570313 9.05609375 2.09765625 10.1796875 C2 13 2 13 1 15 C1.66 15 2.32 15 3 15 C2.10453488 19.79337213 -0.53965573 22.69149531 -4 26 C-9.03225806 29 -9.03225806 29 -12 29 C-11.6875 27.0625 -11.6875 27.0625 -11 25 C-10.01 24.67 -9.02 24.34 -8 24 C-6.39815685 22.31633641 -6.39815685 22.31633641 -4.9375 20.25 C-4.43089844 19.57453125 -3.92429687 18.8990625 -3.40234375 18.203125 C-0.61440479 13.82318747 0.24988095 10.37005944 0.125 5.1875 C0.10695313 4.21167969 0.08890625 3.23585937 0.0703125 2.23046875 C0.04710937 1.49441406 0.02390625 0.75835937 0 0 Z " fill="#DEDEDE" transform="translate(304,229)"/>
<path d="M0 0 C2.475 0.495 2.475 0.495 5 1 C5 1.99 5 2.98 5 4 C5.7425 4.28875 6.485 4.5775 7.25 4.875 C10 6 10 6 11.8046875 7.05078125 C16.23772662 8.96755795 21.27117202 8.43621542 26 8 C29.5047765 6.67014431 29.5047765 6.67014431 32 5 C32.66 5 33.32 5 34 5 C33 8 33 8 30.89453125 9.17578125 C27.38210268 10.17594647 24.33808815 10.22851784 20.6875 10.1875 C19.69109497 10.17674438 19.69109497 10.17674438 18.67456055 10.16577148 C12.66713052 10.06651765 6.79746317 9.69092676 1 8 C0.67 5.36 0.34 2.72 0 0 Z " fill="#A81110" transform="translate(120,178)"/>
<path d="M0 0 C-2.94924939 1.62106548 -5.63806994 2.48443268 -8.9375 3.125 C-9.77152344 3.29257812 -10.60554688 3.46015625 -11.46484375 3.6328125 C-14.01458019 4.00211177 -16.42759067 4.06442528 -19 4 C-19 3.01 -19 2.02 -19 1 C-21.64 1 -24.28 1 -27 1 C-27 0.34 -27 -0.32 -27 -1 C-17.70958539 -2.40232673 -9.06081502 -2.73534038 0 0 Z " fill="#0F1D39" transform="translate(319,272)"/>
<path d="M0 0 C5.70377649 8.55566474 7.15665512 18.11172112 8.70068359 28.07226562 C9.11157215 30.71857558 9.55570195 33.35912562 10 36 C8 35 8 35 7.3671875 33.15234375 C7.20476562 32.42144531 7.04234375 31.69054687 6.875 30.9375 C6.62363281 29.83728516 6.62363281 29.83728516 6.3671875 28.71484375 C6.24601562 28.14894531 6.12484375 27.58304688 6 27 C5.34 27 4.68 27 4 27 C3.87882812 25.81921875 3.75765625 24.6384375 3.6328125 23.421875 C3.4639448 21.86453957 3.29465165 20.30725023 3.125 18.75 C3.04636719 17.97269531 2.96773438 17.19539063 2.88671875 16.39453125 C2.45158831 12.47835733 1.96528761 9.47200811 0 6 C-0.125 2.75 -0.125 2.75 0 0 Z " fill="#E74846" transform="translate(284,139)"/>
<path d="M0 0 C2.95839355 -0.02689449 5.91654427 -0.04678741 8.875 -0.0625 C9.71675781 -0.07087891 10.55851562 -0.07925781 11.42578125 -0.08789062 C12.23144531 -0.09111328 13.03710938 -0.09433594 13.8671875 -0.09765625 C14.98262939 -0.10551147 14.98262939 -0.10551147 16.12060547 -0.11352539 C18 0 18 0 20 1 C20 2.65 20 4.3 20 6 C16.91979223 6.70204038 13.83548264 7.38405208 10.75 8.0625 C9.87730469 8.26166016 9.00460937 8.46082031 8.10546875 8.66601562 C6.83896484 8.94155273 6.83896484 8.94155273 5.546875 9.22265625 C4.77182617 9.39547119 3.99677734 9.56828613 3.19824219 9.74633789 C0.84824709 10.01751125 -0.76197268 9.71554459 -3 9 C2.33835539 7.07528683 7.34979382 5.60108576 13 5 C10.11371599 3.42445965 7.46657616 2.53723627 4.25 1.875 C3.45078125 1.70742188 2.6515625 1.53984375 1.828125 1.3671875 C1.22484375 1.24601562 0.6215625 1.12484375 0 1 C0 0.67 0 0.34 0 0 Z " fill="#BFC1C7" transform="translate(302,268)"/>
<path d="M0 0 C-1.38877354 3.35620271 -2.91677965 5.07298728 -6 7 C-6.66 7 -7.32 7 -8 7 C-8 7.66 -8 8.32 -8 9 C-4.7 9 -1.4 9 2 9 C2.33 9.66 2.66 10.32 3 11 C-6.405 11.495 -6.405 11.495 -16 12 C-14.65214473 7.95643419 -11.9550299 6.58749064 -8.5625 4.3125 C-7.96373047 3.89677734 -7.36496094 3.48105469 -6.74804688 3.05273438 C-2.27170567 0 -2.27170567 0 0 0 Z " fill="#D63C3A" transform="translate(98,209)"/>
<path d="M0 0 C0.33 0 0.66 0 1 0 C0.98952637 0.98282959 0.97905273 1.96565918 0.96826172 2.97827148 C0.93176231 6.662804 0.90899181 10.34732089 0.89013672 14.03198242 C0.88014679 15.61957496 0.8665502 17.20714943 0.84912109 18.79467773 C0.74602476 28.43418534 0.89026086 37.11493818 4.1875 46.3125 C5.02881335 49.0953057 5.02791549 50.32741973 4 53 C3.67 51.35 3.34 49.7 3 48 C2.34 48 1.68 48 1 48 C-1.55085743 44.17371385 -1.27058411 41.07203681 -1.23046875 36.640625 C-1.23001053 35.81802185 -1.22955231 34.9954187 -1.2290802 34.14788818 C-1.22605922 32.40619466 -1.2181775 30.6645038 -1.20581055 28.92285156 C-1.18766434 26.27398959 -1.18530023 23.62547988 -1.18554688 20.9765625 C-1.1806269 19.28124701 -1.17479651 17.58593388 -1.16796875 15.890625 C-1.16685593 15.10496155 -1.1657431 14.3192981 -1.16459656 13.50982666 C-1.12549776 8.90993176 -0.7546236 4.53903275 0 0 Z " fill="#DC5D5E" transform="translate(180,180)"/>
<path d="M0 0 C1.65 0 3.3 0 5 0 C5 0.66 5 1.32 5 2 C15.98260388 2.99140745 26.85826433 3.12097056 37.875 3.0625 C39.54557156 3.05746914 41.2161446 3.05290907 42.88671875 3.04882812 C46.92451682 3.03796159 50.96224132 3.02078681 55 3 C51.24302777 5.44713521 47.48377997 5.28965222 43.15625 5.265625 C42.39131226 5.26753845 41.62637451 5.2694519 40.83825684 5.27142334 C39.21768872 5.27278295 37.59710963 5.26910215 35.9765625 5.26074219 C33.53619806 5.25015701 31.0965898 5.2605832 28.65625 5.2734375 C5.65047196 5.29812181 5.65047196 5.29812181 1.18554688 1.42675781 C0.79431641 0.95592773 0.40308594 0.48509766 0 0 Z " fill="#2C2C2B" transform="translate(172,391)"/>
<path d="M0 0 C3.34373475 0.55728913 6.03312999 1.35173889 9 3 C8.67 3.99 8.34 4.98 8 6 C2.72 6.66 -2.56 7.32 -8 8 C-7.34 6.68 -6.68 5.36 -6 4 C-4.02 4 -2.04 4 0 4 C0 2.68 0 1.36 0 0 Z " fill="#F6F6F6" transform="translate(322,270)"/>
<path d="M0 0 C2.12508244 3.18762365 2.5020163 5.26512223 3 9 C3.33 7.02 3.66 5.04 4 3 C4.33 3 4.66 3 5 3 C5.16435547 4.33804688 5.16435547 4.33804688 5.33203125 5.703125 C5.49058594 6.87359375 5.64914062 8.0440625 5.8125 9.25 C6.03873047 10.99023438 6.03873047 10.99023438 6.26953125 12.765625 C6.99637443 15.98394666 7.81661025 17.58331655 10 20 C9.67 20.66 9.34 21.32 9 22 C8.34 21.67 7.68 21.34 7 21 C6.67 21.66 6.34 22.32 6 23 C2.15902185 18.11290179 1.24868503 14.25467015 0.75 8.125 C0.67265625 7.34125 0.5953125 6.5575 0.515625 5.75 C0.32876995 3.83473571 0.16228307 1.91750263 0 0 Z " fill="#635858" transform="translate(294,154)"/>
<path d="M0 0 C-0.33 1.65 -0.66 3.3 -1 5 C-1.66 5 -2.32 5 -3 5 C-3.12117187 5.63808594 -3.24234375 6.27617187 -3.3671875 6.93359375 C-3.61855469 8.17302734 -3.61855469 8.17302734 -3.875 9.4375 C-4.03742188 10.26121094 -4.19984375 11.08492188 -4.3671875 11.93359375 C-4.57601562 12.61550781 -4.78484375 13.29742187 -5 14 C-5.99 14.495 -5.99 14.495 -7 15 C-7.33 14.01 -7.66 13.02 -8 12 C-9.32 13.65 -10.64 15.3 -12 17 C-11.66248825 10.24976498 -7.77448292 6.07125597 -3.4296875 1.26171875 C-2 0 -2 0 0 0 Z " fill="#969287" transform="translate(209,301)"/>
<path d="M0 0 C3.24476922 0.58674476 4.92652682 1.56319354 7.3125 3.8125 C10.65378796 6.81387338 14.03798748 8.89770764 18 11 C16 12 16 12 13 12 C12.34 13.32 11.68 14.64 11 16 C10.62488281 15.43152344 10.24976563 14.86304688 9.86328125 14.27734375 C6.66365214 9.44969176 3.39462083 4.69256409 0 0 Z " fill="#3A72A4" transform="translate(151,117)"/>
<path d="M0 0 C-4.57866024 3.05244016 -8.39878025 3.19404591 -13.73046875 3.31640625 C-14.48088943 3.33718735 -15.23131012 3.35796844 -16.00447083 3.37937927 C-18.39872184 3.44469926 -20.79308139 3.50367792 -23.1875 3.5625 C-24.81186013 3.60570193 -26.43620933 3.64931676 -28.06054688 3.69335938 C-32.04025371 3.80036263 -36.02006958 3.90167937 -40 4 C-40.33 3.34 -40.66 2.68 -41 2 C-40.24904053 1.97494385 -39.49808105 1.9498877 -38.72436523 1.92407227 C-35.29526467 1.80745058 -31.86639447 1.68502583 -28.4375 1.5625 C-27.25607422 1.52318359 -26.07464844 1.48386719 -24.85742188 1.44335938 C-16.51577875 1.13960206 -8.33294906 -0.14619209 0 0 Z " fill="#DB605E" transform="translate(148,275)"/>
<path d="M0 0 C3.63 0 7.26 0 11 0 C9.515 1.98 9.515 1.98 8 4 C8.66 3.67 9.32 3.34 10 3 C10 3.99 10 4.98 10 6 C10.66 6.33 11.32 6.66 12 7 C6.54520815 6.43179252 2.08940744 5.05362055 -3 3 C-2.01 2.67 -1.02 2.34 0 2 C0 1.34 0 0.68 0 0 Z " fill="#D63635" transform="translate(116,279)"/>
<path d="M0 0 C3.07567183 4.61350774 3.16513981 9.55038643 3 15 C4.32 14.34 5.64 13.68 7 13 C6.70703125 14.98567708 6.4140625 16.97135417 6.12109375 18.95703125 C5.86095201 21.2025342 5.86095201 21.2025342 7 24 C7.66 24.66 8.32 25.32 9 26 C7.171875 25.96875 7.171875 25.96875 5 25 C3.84505216 22.44695742 3.01013491 20.17050153 2.25 17.5 C2.0331958 16.77619141 1.8163916 16.05238281 1.59301758 15.30664062 C0.10177095 10.0623353 -0.48788514 5.46431362 0 0 Z " fill="#192D4F" transform="translate(186,212)"/>
<path d="M0 0 C0 0.33 0 0.66 0 1 C-6.69675136 2.03026944 -13.2314676 2.10152799 -20 2 C-20 2.66 -20 3.32 -20 4 C-15.545 4.99 -15.545 4.99 -11 6 C-15.3457814 7.08644535 -15.94960548 6.90680911 -19.75 5.0625 C-20.54921875 4.68222656 -21.3484375 4.30195313 -22.171875 3.91015625 C-22.77515625 3.60980469 -23.3784375 3.30945313 -24 3 C-24 2.34 -24 1.68 -24 1 C-15.97667603 0.09958689 -8.07029553 -0.11547323 0 0 Z " fill="#919091" transform="translate(159,386)"/>
<path d="M0 0 C0.66 0 1.32 0 2 0 C2.33 0.99 2.66 1.98 3 3 C0.36 5.97 -2.28 8.94 -5 12 C-6.32 11.67 -7.64 11.34 -9 11 C-9.33 10.34 -9.66 9.68 -10 9 C-9.67 8.34 -9.34 7.68 -9 7 C-7.68 7 -6.36 7 -5 7 C-2.26533528 4.73413495 -1.1328469 3.3985407 0 0 Z " fill="#14345F" transform="translate(241,303)"/>
<path d="M0 0 C0.66 0.99 1.32 1.98 2 3 C4.6556728 3.58348752 4.6556728 3.58348752 7.625 3.6875 C8.62789063 3.75324219 9.63078125 3.81898438 10.6640625 3.88671875 C11.43492187 3.92410156 12.20578125 3.96148437 13 4 C10.62672281 6.37327719 10.05025894 6.2957818 6.8125 6.3125 C2.19433205 6.21551101 -0.94944935 5.19404827 -5 3 C-5.33 2.34 -5.66 1.68 -6 1 C-3.92446352 0.4465236 -2.15634036 0 0 0 Z " fill="#C54F4E" transform="translate(315,173)"/>
<path d="M0 0 C-0.33 0.99 -0.66 1.98 -1 3 C-3.91634122 3.19502282 -6.83279545 3.38129328 -9.75 3.5625 C-10.9875 3.64661133 -10.9875 3.64661133 -12.25 3.73242188 C-13.44882813 3.80493164 -13.44882813 3.80493164 -14.671875 3.87890625 C-15.4050293 3.9260376 -16.13818359 3.97316895 -16.89355469 4.02172852 C-19.08357226 3.99913793 -20.90487187 3.61487456 -23 3 C-15.34168372 1.14718155 -7.89216463 0 0 0 Z " fill="#DB5350" transform="translate(186,269)"/>
<path d="M0 0 C4.2742558 1.5830577 6.26531794 4.50568404 9 8 C8.67 8.66 8.34 9.32 8 10 C7.01 9.67 6.02 9.34 5 9 C4.34 9.66 3.68 10.32 3 11 C3 10.01 3 9.02 3 8 C2.34 8 1.68 8 1 8 C0.67 5.36 0.34 2.72 0 0 Z " fill="#D36364" transform="translate(271,123)"/>
<path d="M0 0 C0.99 0.33 1.98 0.66 3 1 C1.02 4.96 -0.96 8.92 -3 13 C-3.33 13 -3.66 13 -4 13 C-4.33 10.03 -4.66 7.06 -5 4 C-3.68 3.34 -2.36 2.68 -1 2 C-0.34 2.33 0.32 2.66 1 3 C0.67 2.01 0.34 1.02 0 0 Z " fill="#BF3535" transform="translate(266,219)"/>
<path d="M0 0 C5.61 0 11.22 0 17 0 C16.01 1.485 16.01 1.485 15 3 C12.3984375 3.29296875 12.3984375 3.29296875 9.375 3.1875 C7.87066406 3.14689453 7.87066406 3.14689453 6.3359375 3.10546875 C5.56507813 3.07066406 4.79421875 3.03585938 4 3 C4 2.34 4 1.68 4 1 C2.68 0.67 1.36 0.34 0 0 Z " fill="#DF3A36" transform="translate(130,206)"/>
<path d="M0 0 C-0.33 1.32 -0.66 2.64 -1 4 C-1.33 3.34 -1.66 2.68 -2 2 C-2.77085937 2.7940625 -3.54171875 3.588125 -4.3359375 4.40625 C-5.34869317 5.43776041 -6.36172852 6.46899627 -7.375 7.5 C-7.88289062 8.02464844 -8.39078125 8.54929688 -8.9140625 9.08984375 C-10.23832604 10.43153181 -11.61605865 11.71995815 -13 13 C-13.66 13 -14.32 13 -15 13 C-13.61536056 9.87250593 -12.00477577 7.7595015 -9.5625 5.375 C-8.96566406 4.78460938 -8.36882812 4.19421875 -7.75390625 3.5859375 C-5.0903467 1.17746272 -3.66266645 0 0 0 Z " fill="#CBDAE8" transform="translate(193,146)"/>
<path d="M0 0 C-1.51671964 4.55015893 -5.16891053 6.50057264 -9 9 C-9 7.68 -9 6.36 -9 5 C-9.66 4.67 -10.32 4.34 -11 4 C-4.5 0 -4.5 0 0 0 Z " fill="#1B4373" transform="translate(279,107)"/>
<path d="M0 0 C3.3 0 6.6 0 10 0 C10 0.66 10 1.32 10 2 C6.78817851 3.90608098 4.46117397 4.22266247 0.75 4.125 C-0.14203125 4.10695313 -1.0340625 4.08890625 -1.953125 4.0703125 C-2.96632812 4.03550781 -2.96632812 4.03550781 -4 4 C-3.67 3.34 -3.34 2.68 -3 2 C-2.01 2 -1.02 2 0 2 C0 1.34 0 0.68 0 0 Z " fill="#BB1E1C" transform="translate(142,334)"/>
<path d="M0 0 C1.65 1.65 3.3 3.3 5 5 C4.67 5.66 4.34 6.32 4 7 C3.01 6.34 2.02 5.68 1 5 C1.09539062 5.96421875 1.19078125 6.9284375 1.2890625 7.921875 C1.39992187 9.18515625 1.51078125 10.4484375 1.625 11.75 C1.74101562 13.00296875 1.85703125 14.2559375 1.9765625 15.546875 C2 19 2 19 0 23 C0 15.41 0 7.82 0 0 Z " fill="#4C7FAB" transform="translate(244,193)"/>
<path d="M0 0 C0.66 0.33 1.32 0.66 2 1 C-4.16099651 6.3395303 -8.12596181 7.16491377 -16.28515625 7.71875 C-18.96382316 7.83496737 -18.96382316 7.83496737 -21 9 C-21.66 8.67 -22.32 8.34 -23 8 C-23 7.34 -23 6.68 -23 6 C-21.98679687 5.96261719 -20.97359375 5.92523438 -19.9296875 5.88671875 C-18.57809061 5.82101612 -17.22652971 5.75457029 -15.875 5.6875 C-15.20984375 5.66494141 -14.5446875 5.64238281 -13.859375 5.61914062 C-8.25500471 5.31694419 -4.0086713 4.0086713 0 0 Z " fill="#C91B1A" transform="translate(332,166)"/>
<path d="M0 0 C1 3 1 3 0.1015625 4.828125 C-0.26195312 5.54484375 -0.62546875 6.2615625 -1 7 C-1.45275278 9.81496741 -1.45275278 9.81496741 -1.625 12.75 C-1.69976562 13.73484375 -1.77453125 14.7196875 -1.8515625 15.734375 C-1.90054687 16.48203125 -1.94953125 17.2296875 -2 18 C-4.08962236 14.86556646 -4.25367554 14.12996308 -4.1875 10.5625 C-4.18105469 9.80066406 -4.17460937 9.03882813 -4.16796875 8.25390625 C-4.00010981 6.00147352 -3.77958718 4.1224599 -3 2 C-2.01 1.34 -1.02 0.68 0 0 Z " fill="#FBF9F9" transform="translate(304,149)"/>
<path d="M0 0 C0.66 0.33 1.32 0.66 2 1 C-1.86364295 5.48717034 -5.74790208 9.87675353 -10 14 C-10.66 13.67 -11.32 13.34 -12 13 C-10.18777319 11.02058257 -8.37523172 9.04145495 -6.5625 7.0625 C-6.04623047 6.49853516 -5.52996094 5.93457031 -4.99804688 5.35351562 C-1.11328125 1.11328125 -1.11328125 1.11328125 0 0 Z " fill="#3E3E3E" transform="translate(256,139)"/>
<path d="M0 0 C0.66 0.66 1.32 1.32 2 2 C3.32 2.33 4.64 2.66 6 3 C5.34 6.3 4.68 9.6 4 13 C1.27835324 10.27835324 0.89427524 7.70485455 0 4 C0 2.68 0 1.36 0 0 Z " fill="#203B5D" transform="translate(209,348)"/>
<path d="M0 0 C1.65 0 3.3 0 5 0 C5 0.66 5 1.32 5 2 C5.96421875 2.04898437 6.9284375 2.09796875 7.921875 2.1484375 C9.81679687 2.26058594 9.81679687 2.26058594 11.75 2.375 C13.62945312 2.47941406 13.62945312 2.47941406 15.546875 2.5859375 C18.60998121 2.95323304 20.41974266 3.39711286 23 5 C6.12243221 5.64913722 6.12243221 5.64913722 1.14453125 1.42578125 C0.76683594 0.95527344 0.38914063 0.48476563 0 0 Z " fill="#383737" transform="translate(172,391)"/>
<path d="M0 0 C0.66 0.33 1.32 0.66 2 1 C-2.62 5.62 -7.24 10.24 -12 15 C-12 10.09687565 -8.29800369 7.38658643 -5 4 C-3.37458956 2.61667196 -1.72614587 1.25537882 0 0 Z " fill="#E2CCCC" transform="translate(209,293)"/>
<path d="M0 0 C3.375 0.3125 3.375 0.3125 7 1 C7.66 1.99 8.32 2.98 9 4 C9.66 4.12375 10.32 4.2475 11 4.375 C11.66 4.58125 12.32 4.7875 13 5 C14.125 7.5390625 14.125 7.5390625 15 10 C12.68367725 8.71481447 10.37203058 7.42228734 8.0625 6.125 C7.0734668 5.57779297 7.0734668 5.57779297 6.06445312 5.01953125 C1.11328125 2.2265625 1.11328125 2.2265625 0 0 Z " fill="#D24B4B" transform="translate(125,226)"/>
<path d="M0 0 C0.66 0.99 1.32 1.98 2 3 C1.01 3.33 0.02 3.66 -1 4 C-0.938125 4.721875 -0.87625 5.44375 -0.8125 6.1875 C-1.03927331 9.5890997 -1.96787379 11.29049839 -4 14 C-4.99 14.33 -5.98 14.66 -7 15 C-5.45454854 9.52067211 -2.84456788 4.88570819 0 0 Z " fill="#E46463" transform="translate(175,170)"/>
<path d="M0 0 C-0.33 1.65 -0.66 3.3 -1 5 C-1.66 5 -2.32 5 -3 5 C-3 5.66 -3 6.32 -3 7 C-4.32 7 -5.64 7 -7 7 C-7.66 8.32 -8.32 9.64 -9 11 C-9 7.25983417 -8.0658409 6.54723807 -5.625 3.8125 C-4.99851563 3.09707031 -4.37203125 2.38164062 -3.7265625 1.64453125 C-2 0 -2 0 0 0 Z " fill="#B0ABA5" transform="translate(209,301)"/>
<path d="M0 0 C3 1 3 1 5 3 C5.99 3 6.98 3 8 3 C7.67 5.31 7.34 7.62 7 10 C3.60582235 6.87378374 1.3937282 4.43458973 0 0 Z " fill="#C32527" transform="translate(156,254)"/>
<path d="M0 0 C0.33 0.99 0.66 1.98 1 3 C4.96 3 8.92 3 13 3 C13 3.33 13 3.66 13 4 C3.595 4.495 3.595 4.495 -6 5 C-5.67 4.01 -5.34 3.02 -5 2 C-2.4375 0.8125 -2.4375 0.8125 0 0 Z " fill="#DB7473" transform="translate(88,216)"/>
<path d="M0 0 C1.77297142 2.65945714 2.93068972 4.995958 4.125 7.9375 C4.47820312 8.79214844 4.83140625 9.64679688 5.1953125 10.52734375 C6 13 6 13 6 17 C5.34 17 4.68 17 4 17 C3.71125 15.9275 3.4225 14.855 3.125 13.75 C2.19994585 10.1977959 2.19994585 10.1977959 0.875 7.9375 C-0.33548424 5.25714205 -0.13186705 2.90107504 0 0 Z " fill="#E66969" transform="translate(284,139)"/>
<path d="M0 0 C0.99 0 1.98 0 3 0 C1.45454854 5.47932789 -1.15543212 10.11429181 -4 15 C-4.93423645 11.98968256 -5.04449911 11.13349732 -4 8 C-3.34 8 -2.68 8 -2 8 C-2 7.01 -2 6.02 -2 5 C-1.34 5 -0.68 5 0 5 C-0.2784375 4.0409375 -0.2784375 4.0409375 -0.5625 3.0625 C-0.706875 2.381875 -0.85125 1.70125 -1 1 C-0.67 0.67 -0.34 0.34 0 0 Z " fill="#A03D3D" transform="translate(222,269)"/>
<path d="M0 0 C1.093125 0.0825 2.18625 0.165 3.3125 0.25 C2.9825 1.57 2.6525 2.89 2.3125 4.25 C-0.6575 4.25 -3.6275 4.25 -6.6875 4.25 C-4.79150483 0.68106792 -4.16790733 0.28256999 0 0 Z " fill="#DA1D1E" transform="translate(150.6875,275.75)"/>
<path d="M0 0 C0 0.33 0 0.66 0 1 C-0.62648438 1.02578125 -1.25296875 1.0515625 -1.8984375 1.078125 C-2.71570313 1.13484375 -3.53296875 1.1915625 -4.375 1.25 C-5.18710937 1.29640625 -5.99921875 1.3428125 -6.8359375 1.390625 C-9.18838927 1.7922092 -9.18838927 1.7922092 -10.2890625 4.046875 C-10.52367187 4.69140625 -10.75828125 5.3359375 -11 6 C-11 5.01 -11 4.02 -11 3 C-13.64 3 -16.28 3 -19 3 C-19 2.34 -19 1.68 -19 1 C-12.62641289 0.03794912 -6.44070471 -0.10655578 0 0 Z " fill="#0C264A" transform="translate(311,270)"/>
<path d="M0 0 C-1 3 -1 3 -3.9375 4.6875 C-7 6 -7 6 -9 6 C-9.33 4.68 -9.66 3.36 -10 2 C-8.7090864 1.66376204 -7.41723903 1.33110751 -6.125 1 C-5.40570313 0.814375 -4.68640625 0.62875 -3.9453125 0.4375 C-2 0 -2 0 0 0 Z " fill="#D12525" transform="translate(315,210)"/>
<path d="M0 0 C0.33 0 0.66 0 1 0 C1.05398987 2.27057377 1.09278742 4.54151288 1.125 6.8125 C1.14820313 8.07707031 1.17140625 9.34164062 1.1953125 10.64453125 C1 14 1 14 -1 17 C-1.70812814 19.32108669 -2.38024152 21.65377147 -3 24 C-4.34215465 21.3156907 -3.7789514 19.92538009 -3.22265625 16.9921875 C-3.03896484 16.00605469 -2.85527344 15.01992187 -2.66601562 14.00390625 C-2.36727539 12.45509766 -2.36727539 12.45509766 -2.0625 10.875 C-1.86720703 9.83472656 -1.67191406 8.79445312 -1.47070312 7.72265625 C-0.98634101 5.14726742 -0.49586612 2.57319434 0 0 Z " fill="#DB5D5A" transform="translate(275,170)"/>
<path d="M0 0 C-0.99 0.33 -1.98 0.66 -3 1 C-3.33 1.99 -3.66 2.98 -4 4 C-5.65 3.67 -7.3 3.34 -9 3 C-9.99 4.32 -10.98 5.64 -12 7 C-12 6.01 -12 5.02 -12 4 C-12.66 3.67 -13.32 3.34 -14 3 C-9.41201726 -0.05865516 -5.43293781 -0.12634739 0 0 Z " fill="#DF514D" transform="translate(324,142)"/>
<path d="M0 0 C0.33 0.99 0.66 1.98 1 3 C0.04867188 3.78117188 0.04867188 3.78117188 -0.921875 4.578125 C-3.54904376 7.63986303 -3.77333817 9.77781807 -4.25 13.75 C-4.39953125 14.92046875 -4.5490625 16.0909375 -4.703125 17.296875 C-4.80109375 18.18890625 -4.8990625 19.0809375 -5 20 C-5.33 20 -5.66 20 -6 20 C-7.03368414 8.51462062 -7.03368414 8.51462062 -3 3.25 C-2.0272438 2.14213878 -1.03631289 1.04864995 0 0 Z " fill="#DE5E5D" transform="translate(309,146)"/>
<path d="M0 0 C5.94 0 11.88 0 18 0 C18 0.33 18 0.66 18 1 C14.37 1 10.74 1 7 1 C7 1.66 7 2.32 7 3 C4.625 3.1875 4.625 3.1875 2 3 C1.34 2.01 0.68 1.02 0 0 Z " fill="#C72627" transform="translate(109,278)"/>
<path d="M0 0 C-0.66 1.32 -1.32 2.64 -2 4 C-2.33 3.34 -2.66 2.68 -3 2 C-3.90492188 2.23396484 -3.90492188 2.23396484 -4.828125 2.47265625 C-5.62734375 2.66730469 -6.4265625 2.86195312 -7.25 3.0625 C-8.03890625 3.25972656 -8.8278125 3.45695312 -9.640625 3.66015625 C-12.10394822 4.01497267 -13.65604132 3.76877544 -16 3 C-10.47239641 0.89424625 -5.93002267 -0.37851209 0 0 Z " fill="#7E9DBC" transform="translate(282,105)"/>
<path d="M0 0 C0.66 0 1.32 0 2 0 C2.125 2.875 2.125 2.875 2 6 C1.34 6.66 0.68 7.32 0 8 C-0.66 8 -1.32 8 -2 8 C-2.99 8.495 -2.99 8.495 -4 9 C-3.35494404 5.51669784 -2.01782732 2.90567134 0 0 Z " fill="#133665" transform="translate(215,304)"/>
<path d="M0 0 C2.625 0.375 2.625 0.375 5 1 C5 1.99 5 2.98 5 4 C5.99 4.33 6.98 4.66 8 5 C6.375 5.75 6.375 5.75 4 6 C0.75 4.0625 0.75 4.0625 -2 2 C-1.34 1.34 -0.68 0.68 0 0 Z " fill="#D74444" transform="translate(297,213)"/>
<path d="M0 0 C2 3 2 3 1.5390625 6.13671875 C1.23742187 7.30847656 0.93578125 8.48023438 0.625 9.6875 C0.32851562 10.86699219 0.03203125 12.04648438 -0.2734375 13.26171875 C-0.51320313 14.16535156 -0.75296875 15.06898438 -1 16 C-1.33 16 -1.66 16 -2 16 C-2.05423638 14.08364783 -2.09289963 12.16685075 -2.125 10.25 C-2.14820312 9.18265625 -2.17140625 8.1153125 -2.1953125 7.015625 C-2.00487687 4.07529894 -1.52670104 2.47638122 0 0 Z " fill="#DA5050" transform="translate(121,166)"/>
<path d="M0 0 C1.45922693 0.11409593 2.91740598 0.24165544 4.375 0.375 C5.59316406 0.47941406 5.59316406 0.47941406 6.8359375 0.5859375 C9 1 9 1 11 3 C7.04 3 3.08 3 -1 3 C-0.67 2.01 -0.34 1.02 0 0 Z " fill="#C21D1D" transform="translate(356,196)"/>
<path d="M0 0 C0.99 0.33 1.98 0.66 3 1 C1 4 1 4 -1.3828125 4.51171875 C-2.28773438 4.56972656 -3.19265625 4.62773437 -4.125 4.6875 C-5.03507812 4.75324219 -5.94515625 4.81898438 -6.8828125 4.88671875 C-7.93082031 4.94279297 -7.93082031 4.94279297 -9 5 C-9.33 4.34 -9.66 3.68 -10 3 C-8.906875 2.87625 -7.81375 2.7525 -6.6875 2.625 C-2.92618198 2.24535199 -2.92618198 2.24535199 0 0 Z " fill="#FAF4F4" transform="translate(328,177)"/>
<path d="M0 0 C3.27112106 4.9066816 3.14082151 10.22631808 3 16 C0.30717525 11.96076287 -0.13300939 9.04463848 -0.0625 4.25 C-0.05347656 3.45078125 -0.04445312 2.6515625 -0.03515625 1.828125 C-0.02355469 1.22484375 -0.01195312 0.6215625 0 0 Z " fill="#2C4166" transform="translate(186,212)"/>
<path d="M0 0 C0.763125 0.0825 1.52625 0.165 2.3125 0.25 C2.3125 1.58333333 2.3125 2.91666667 2.3125 4.25 C-0.3275 4.25 -2.9675 4.25 -5.6875 4.25 C-3.34903846 0.31153846 -3.34903846 0.31153846 0 0 Z " fill="#DA2522" transform="translate(314.6875,191.75)"/>
<path d="M0 0 C0.66 0.33 1.32 0.66 2 1 C2 3.97 2 6.94 2 10 C1.34 10 0.68 10 0 10 C-0.19412181 8.52168779 -0.38012131 7.04230684 -0.5625 5.5625 C-0.66691406 4.73878906 -0.77132812 3.91507812 -0.87890625 3.06640625 C-0.91886719 2.38449219 -0.95882812 1.70257813 -1 1 C-0.67 0.67 -0.34 0.34 0 0 Z " fill="#CB1C1F" transform="translate(169,306)"/>
<path d="M0 0 C-1 3 -1 3 -3.19921875 4.1796875 C-6.2240827 5.06563092 -8.66890834 5.2007492 -11.8125 5.125 C-13.27623047 5.09792969 -13.27623047 5.09792969 -14.76953125 5.0703125 C-15.50558594 5.04710937 -16.24164063 5.02390625 -17 5 C-17 4.67 -17 4.34 -17 4 C-16.16855469 3.87882813 -15.33710938 3.75765625 -14.48046875 3.6328125 C-13.39378906 3.46523437 -12.30710938 3.29765625 -11.1875 3.125 C-10.10855469 2.96257812 -9.02960938 2.80015625 -7.91796875 2.6328125 C-4.88023357 1.97402656 -3.02790929 0 0 0 Z " fill="#BA1B15" transform="translate(154,183)"/>
<path d="M0 0 C0.33 0 0.66 0 1 0 C2.0070238 5.03511899 1.97387813 8.23947038 0 13 C-0.33 13 -0.66 13 -1 13 C-1.1953125 10.94921875 -1.390625 8.8984375 -1.5859375 6.84765625 C-1.72257812 6.23792969 -1.85921875 5.62820312 -2 5 C-2.66 4.67 -3.32 4.34 -4 4 C-3.01 3.67 -2.02 3.34 -1 3 C-0.67 2.01 -0.34 1.02 0 0 Z " fill="#EAE5E6" transform="translate(271,125)"/>
<path d="M0 0 C-1.45537568 0.83848804 -2.91440373 1.67063934 -4.375 2.5 C-5.59316406 3.19609375 -5.59316406 3.19609375 -6.8359375 3.90625 C-9 5 -9 5 -11 5 C-11 4.01 -11 3.02 -11 2 C-9.73392393 1.46770674 -8.46189588 0.94955456 -7.1875 0.4375 C-6.47980469 0.14746094 -5.77210938 -0.14257812 -5.04296875 -0.44140625 C-3 -1 -3 -1 0 0 Z " fill="#26669F" transform="translate(275,108)"/>
<path d="M0 0 C2.44839588 3.67259383 4 6.54648201 4 11 C1.53199953 9.84826645 -0.04783565 8.95216435 -2 7 C-1.34 6.67 -0.68 6.34 0 6 C0 4.02 0 2.04 0 0 Z " fill="#A15855" transform="translate(189,350)"/>
<path d="M0 0 C0.66 0 1.32 0 2 0 C2.33 2.31 2.66 4.62 3 7 C2.01 7.33 1.02 7.66 0 8 C-1.125 5.6875 -1.125 5.6875 -2 3 C-1.34 2.01 -0.68 1.02 0 0 Z " fill="#123C6C" transform="translate(222,287)"/>
<path d="M0 0 C-1.17578125 1.51953125 -1.17578125 1.51953125 -3 3 C-5.48046875 3.07421875 -5.48046875 3.07421875 -8.1875 2.6875 C-9.53908203 2.50767578 -9.53908203 2.50767578 -10.91796875 2.32421875 C-11.94857422 2.16373047 -11.94857422 2.16373047 -13 2 C-13 1.67 -13 1.34 -13 1 C-11.58622218 0.63447197 -10.16879424 0.28304505 -8.75 -0.0625 C-7.96109375 -0.25972656 -7.1721875 -0.45695312 -6.359375 -0.66015625 C-3.89605178 -1.01497267 -2.34395868 -0.76877544 0 0 Z " fill="#D44945" transform="translate(220,262)"/>
<path d="M0 0 C0.33 0 0.66 0 1 0 C1.6875 3.3125 1.6875 3.3125 2 7 C0.6875 8.6875 0.6875 8.6875 -1 10 C-2.17574711 12.09989652 -2.17574711 12.09989652 -3 14 C-4 12 -4 12 -3.4765625 9.94140625 C-3.19554687 9.15636719 -2.91453125 8.37132812 -2.625 7.5625 C-2.34914062 6.78003906 -2.07328125 5.99757813 -1.7890625 5.19140625 C-1.52867187 4.46824219 -1.26828125 3.74507812 -1 3 C-0.67 2.01 -0.34 1.02 0 0 Z " fill="#507FA8" transform="translate(236,251)"/>
<path d="M0 0 C1.0169313 2.65498232 1.13022151 3.69155375 0.00390625 6.359375 C-0.47175781 7.14828125 -0.94742188 7.9371875 -1.4375 8.75 C-2.14712891 9.94882812 -2.14712891 9.94882812 -2.87109375 11.171875 C-3.24363281 11.77515625 -3.61617187 12.3784375 -4 13 C-5 11 -5 11 -4.2578125 8.65234375 C-3.88398438 7.75644531 -3.51015625 6.86054688 -3.125 5.9375 C-2.75632813 5.03902344 -2.38765625 4.14054687 -2.0078125 3.21484375 C-1 1 -1 1 0 0 Z " fill="#436087" transform="translate(214,301)"/>
<path d="M0 0 C-3.90028225 2.60018816 -7.47434569 2.15085514 -12 2 C-12 1.34 -12 0.68 -12 0 C-7.6835078 -0.76173392 -4.25566547 -1.16063604 0 0 Z " fill="#C74444" transform="translate(175,265)"/>
<path d="M0 0 C-0.54723683 3.37462715 -1.0549 5.08235 -3 8 C-3 6.02 -3 4.04 -3 2 C-4.65 2 -6.3 2 -8 2 C-4.91190305 0.23537317 -3.76687864 0 0 0 Z " fill="#B0585A" transform="translate(229,259)"/>
<path d="M0 0 C2.475 0.495 2.475 0.495 5 1 C5 1.99 5 2.98 5 4 C4.34 4 3.68 4 3 4 C2.34 5.32 1.68 6.64 1 8 C0.67 5.36 0.34 2.72 0 0 Z " fill="#BE1D1B" transform="translate(120,178)"/>
<path d="M0 0 C0.99 0.33 1.98 0.66 3 1 C1.88121617 2.17262904 0.75476949 3.33795138 -0.375 4.5 C-1.00148438 5.1496875 -1.62796875 5.799375 -2.2734375 6.46875 C-4 8 -4 8 -6 8 C-4.55746343 4.63408134 -2.66735273 2.48952921 0 0 Z " fill="#D5D4D4" transform="translate(308,141)"/>
<path d="M0 0 C0.66 0.33 1.32 0.66 2 1 C-0.57784846 3.64752004 -2.91648098 5.94432065 -6 8 C-6.99 7.34 -7.98 6.68 -9 6 C-6.03 4.02 -3.06 2.04 0 0 Z " fill="#4184BC" transform="translate(244,118)"/>
<path d="M0 0 C3.07536854 0.65900754 5.07735566 1.53867783 8 3 C4.7 3.33 1.4 3.66 -2 4 C-1.34 2.68 -0.68 1.36 0 0 Z " fill="#EEEEEF" transform="translate(316,274)"/>
<path d="M0 0 C2.31 0 4.62 0 7 0 C6.67 0.99 6.34 1.98 6 3 C4.02 3.33 2.04 3.66 0 4 C0 2.68 0 1.36 0 0 Z " fill="#D02324" transform="translate(271,212)"/>
<path d="M0 0 C0.66 1.65 1.32 3.3 2 5 C-1.68754757 4.50168276 -3.60490662 3.89932357 -6 1 C-3.92446352 0.4465236 -2.15634036 0 0 0 Z " fill="#BB3939" transform="translate(315,173)"/>
<path d="M0 0 C-2.52956528 3.0916909 -5.22454612 3.90931332 -9 5 C-7.35234966 0.05704899 -4.76872479 -0.25776891 0 0 Z " fill="#1A365F" transform="translate(273,286)"/>
<path d="M0 0 C0.33 0 0.66 0 1 0 C1.31563182 5.26053037 0.66590937 8.44573816 -2 13 C-2.66 12.01 -3.32 11.02 -4 10 C-3.525625 9.278125 -3.05125 8.55625 -2.5625 7.8125 C-1.05847097 5.10524774 -0.43400818 3.03805725 0 0 Z " fill="#C03533" transform="translate(156,176)"/>
<path d="M0 0 C0.33 0 0.66 0 1 0 C1.3125 2.25 1.3125 2.25 1 5 C-1.5 7.3125 -1.5 7.3125 -4 9 C-3.67 7.02 -3.34 5.04 -3 3 C-2.01 2.67 -1.02 2.34 0 2 C0 1.34 0 0.68 0 0 Z " fill="#C02B2B" transform="translate(336,166)"/>
<path d="M0 0 C-1.5830577 4.2742558 -4.50568404 6.26531794 -8 9 C-6.68994234 5.06982701 -4.75047804 0 0 0 Z " fill="#3C3D3C" transform="translate(198,91)"/>
<path d="M0 0 C-3.50538557 1.96301592 -7.13351728 2.95902388 -11 4 C-10 1 -10 1 -7.75 -0.25 C-4.71763271 -1.07700926 -2.98879276 -0.85394079 0 0 Z " fill="#D73B38" transform="translate(331,205)"/>
<path d="M0 0 C0.33 0 0.66 0 1 0 C1.1875 3.375 1.1875 3.375 1 7 C0.01 7.66 -0.98 8.32 -2 9 C-2.25 3.375 -2.25 3.375 0 0 Z " fill="#DD362F" transform="translate(275,184)"/>
<path d="M0 0 C0.66 0 1.32 0 2 0 C1.71715982 1.77226453 1.42339502 3.542788 1.125 5.3125 C0.96257812 6.29863281 0.80015625 7.28476563 0.6328125 8.30078125 C0 11 0 11 -2 14 C-1.85970581 11.8537974 -1.71261836 9.70803782 -1.5625 7.5625 C-1.48128906 6.36753906 -1.40007812 5.17257813 -1.31640625 3.94140625 C-1 1 -1 1 0 0 Z " fill="#D4A9AF" transform="translate(185,156)"/>
<path d="M0 0 C1.65 0.33 3.3 0.66 5 1 C5 1.99 5 2.98 5 4 C3.35 3.67 1.7 3.34 0 3 C0 2.01 0 1.02 0 0 Z " fill="#BE1A1B" transform="translate(193,257)"/>
<path d="M0 0 C0.66 0 1.32 0 2 0 C3.06775224 1.96466413 4.06553465 3.96855359 5 6 C4.67 6.66 4.34 7.32 4 8 C3.34 8 2.68 8 2 8 C0.23537317 4.91190305 0 3.76687864 0 0 Z " fill="#D23C3F" transform="translate(187,241)"/>
<path d="M0 0 C2.64 0 5.28 0 8 0 C7.67 0.99 7.34 1.98 7 3 C4.0625 2.625 4.0625 2.625 1 2 C0.67 1.34 0.34 0.68 0 0 Z " fill="#C92728" transform="translate(109,219)"/>
<path d="M0 0 C0 0.66 0 1.32 0 2 C-0.66 2 -1.32 2 -2 2 C-2 2.66 -2 3.32 -2 4 C-4.64 4 -7.28 4 -10 4 C-8.66666667 3.33333333 -7.33333333 2.66666667 -6 2 C-5.29875 1.62875 -4.5975 1.2575 -3.875 0.875 C-2 0 -2 0 0 0 Z " fill="#4180B3" transform="translate(218,136)"/>
<path d="M0 0 C2 2 2 2 3 5 C3.66 4.34 4.32 3.68 5 3 C5 4.32 5 5.64 5 7 C3.125 6.75 3.125 6.75 1 6 C-0.3125 4.0625 -0.3125 4.0625 -1 2 C-0.67 1.34 -0.34 0.68 0 0 Z " fill="#505675" transform="translate(204,252)"/>
<path d="M0 0 C0 0.99 0 1.98 0 3 C-2.64 3 -5.28 3 -8 3 C-8 2.34 -8 1.68 -8 1 C-5.07175348 0.02391783 -3.04386724 -0.08226668 0 0 Z " fill="#D21D1A" transform="translate(302,211)"/>
<path d="M0 0 C1.2380014 3.57644848 0.74926071 6.33694766 0 10 C-2 7 -2 7 -1.6875 3.875 C-1 1 -1 1 0 0 Z " fill="#D52122" transform="translate(271,197)"/>
<path d="M0 0 C2.64 0.66 5.28 1.32 8 2 C7.01 2.99 6.02 3.98 5 5 C3.0625 4.1875 3.0625 4.1875 1 3 C0.67 2.01 0.34 1.02 0 0 Z " fill="#DF3E3A" transform="translate(306,189)"/>
<path d="M0 0 C0.99 0 1.98 0 3 0 C1.8141763 3.37503669 0.72426311 5.64722731 -2 8 C-2 6.35 -2 4.7 -2 3 C-1.01 3 -0.02 3 1 3 C0.67 2.01 0.34 1.02 0 0 Z " fill="#832626" transform="translate(193,306)"/>
<path d="M0 0 C0.66 0.33 1.32 0.66 2 1 C-1.625 5.875 -1.625 5.875 -5 7 C-3.70700306 4.11562221 -2.34058637 2.12780579 0 0 Z " fill="#484646" transform="translate(275,220)"/>
<path d="M0 0 C2.12046792 3.53411321 2.53199289 6.94393835 3 11 C1.5 10 1.5 10 0 8 C-0.27345479 5.28153765 -0.13491285 2.74322801 0 0 Z " fill="#DF3D3D" transform="translate(304,161)"/>
<path d="M0 0 C1.125 1.6875 1.125 1.6875 2 4 C1.08326247 7.13218656 -0.18017929 9.27026894 -2 12 C-1.44687265 7.97007218 -0.8441938 3.97977076 0 0 Z " fill="#5B7AA0" transform="translate(189,160)"/>
</svg>
